<svg width="22" height="22" viewBox="0 0 22 22" fill="none" xmlns="http://www.w3.org/2000/svg">
<path d="M6.76627 7.96519L4.34999 10.3815C4.19455 10.5369 4.0004 10.6183 3.76753 10.6256C3.53467 10.633 3.33317 10.5516 3.16304 10.3815C3.0076 10.226 2.9265 10.0319 2.91971 9.79902C2.91293 9.56615 2.98697 9.36465 3.14184 9.19452L3.75651 8.55866L3.16304 7.96519C2.99347 7.79562 2.90869 7.5978 2.90869 7.37171C2.90869 7.14563 2.99347 6.9478 3.16304 6.77824L4.34999 5.59129L3.73532 4.95542C3.57988 4.79999 3.50217 4.60584 3.50217 4.37297C3.50217 4.1401 3.58695 3.9386 3.75651 3.76847C3.91195 3.61304 4.10638 3.53193 4.33981 3.52515C4.57325 3.51837 4.77446 3.59241 4.94346 3.74728L5.57933 4.36195L6.76627 3.175C6.93584 3.00544 7.13366 2.92065 7.35975 2.92065C7.58583 2.92065 7.78366 3.00544 7.95322 3.175L8.5467 3.76847L9.18256 3.1538C9.338 2.99837 9.53243 2.92065 9.76586 2.92065C9.9993 2.92065 10.2005 3.00544 10.3695 3.175C10.5249 3.33043 10.6027 3.52826 10.6027 3.76847C10.6027 4.00869 10.5249 4.20652 10.3695 4.36195L7.95322 6.77824L15.1597 13.9847L17.576 11.5684C17.7314 11.413 17.9259 11.3319 18.1593 11.3251C18.3927 11.3183 18.5939 11.3994 18.7629 11.5684C18.9184 11.7239 18.9998 11.9183 19.0071 12.1517C19.0145 12.3852 18.9401 12.5864 18.7841 12.7554L18.1695 13.3912L18.7629 13.9847C18.9325 14.1543 19.0173 14.3521 19.0173 14.5782C19.0173 14.8043 18.9325 15.0021 18.7629 15.1717L17.576 16.3586L18.1907 16.9945C18.3461 17.1499 18.4238 17.3441 18.4238 17.5769C18.4238 17.8098 18.339 18.0113 18.1695 18.1814C18.014 18.3369 17.8199 18.4182 17.587 18.4256C17.3541 18.4329 17.1526 18.3586 16.9825 18.2026L16.3466 17.5879L15.1597 18.7749C14.9901 18.9445 14.7923 19.0292 14.5662 19.0292C14.3401 19.0292 14.1423 18.9445 13.9727 18.7749L13.3793 18.1814L12.7434 18.7961C12.588 18.9515 12.3938 19.0292 12.161 19.0292C11.9281 19.0292 11.7266 18.9445 11.5565 18.7749C11.401 18.6195 11.3233 18.4216 11.3233 18.1814C11.3233 17.9412 11.401 17.7434 11.5565 17.5879L13.9727 15.1717L6.76627 7.96519Z" fill="white"/>
</svg>
