<svg width="32" height="32" viewBox="0 0 32 32" fill="none" xmlns="http://www.w3.org/2000/svg">
<circle cx="16" cy="16" r="16" fill="#353535"/>
<path d="M8.23936 26.1998C7.92872 26.1053 7.61017 25.8037 7.52666 25.5249C7.49122 25.4067 7.47971 23.2271 7.48001 16.6926L7.4804 8.01721L7.57457 7.81499C7.62657 7.70331 7.7465 7.54619 7.84242 7.46409C8.09975 7.24382 8.3087 7.19721 9.03873 7.19721H9.66333L9.70874 7.50721C9.77057 7.92924 9.88824 8.21562 10.1331 8.54009C10.3823 8.87032 10.7422 9.12379 11.1396 9.24899L11.4196 9.33721H15.3796H19.3396L19.6072 9.24474C20.1375 9.06153 20.5669 8.6966 20.8042 8.22762C20.9334 7.97217 21.0381 7.57798 21.039 7.34339L21.0396 7.18958L21.7696 7.20438C22.4267 7.2177 22.5162 7.22792 22.665 7.30665C22.8749 7.41765 23.0582 7.60063 23.1712 7.81183L23.2596 7.97721L23.2702 14.4872L23.2808 20.9972H22.4402H21.5996L21.5993 15.7272C21.5992 12.1989 21.5853 10.4077 21.5575 10.3073C21.4768 10.0165 21.9528 10.0372 15.3385 10.0372H9.39346L9.27654 10.1541L9.15961 10.2711V17.3519V24.4328L9.25614 24.545L9.35267 24.6572L12.7361 24.6679L16.1196 24.6785V25.0706C16.1196 25.4998 16.1856 25.792 16.3447 26.0672L16.443 26.2372L12.3913 26.2338C10.1629 26.2319 8.2945 26.2166 8.23936 26.1998ZM17.5549 26.1836C17.0358 25.9923 16.7996 25.6069 16.7996 24.9509V24.6372H17.6027H18.4058L18.5227 24.5203C18.6531 24.3899 18.6679 24.2879 18.5808 24.1196C18.491 23.9458 18.3432 23.9172 17.5336 23.9172H16.7996V22.8572V21.7972H17.5974C18.3812 21.7972 18.3971 21.7955 18.5065 21.7015C18.6529 21.5755 18.6633 21.3231 18.5277 21.1874C18.4409 21.1005 18.4071 21.0968 17.6134 21.0849L16.7891 21.0725L16.8087 20.6849C16.8195 20.4687 16.8555 20.2328 16.89 20.1516C16.9794 19.941 17.2133 19.699 17.4308 19.5919C17.6069 19.5052 17.668 19.4989 18.3396 19.4981C19.0079 19.4972 19.0743 19.5039 19.2643 19.5899C19.5169 19.7042 19.6873 19.8758 19.8076 20.1372L19.8996 20.3372V22.8772C19.8996 25.7099 19.9152 25.5447 19.6162 25.8757C19.3345 26.1876 19.2388 26.2157 18.4196 26.227C17.8974 26.2342 17.6599 26.2223 17.5549 26.1836ZM20.2881 26.2072C20.5781 25.6321 20.5777 25.6334 20.5933 25.1672L20.6082 24.7172H21.9494H23.2905L23.2708 25.0939C23.254 25.4161 23.2339 25.5014 23.132 25.6839C23.0023 25.9161 22.7375 26.1262 22.4867 26.1959C22.3184 26.2427 20.2649 26.2532 20.2881 26.2072ZM25.1742 26.1952C24.9351 26.1229 24.6717 25.9068 24.543 25.6772L24.4196 25.4572L24.4082 22.9624C24.3952 20.1378 24.392 20.1739 24.6849 19.8561C24.7736 19.7599 24.9302 19.6398 25.0329 19.5892C25.2068 19.5035 25.2691 19.4972 25.9396 19.4972C26.612 19.4972 26.6735 19.5035 26.8699 19.5923C27.1041 19.6981 27.2928 19.8897 27.404 20.1346C27.4593 20.2563 27.4781 20.3948 27.4787 20.6849L27.4796 21.0726L26.6761 21.0849L25.8726 21.0972L25.7761 21.2095C25.6427 21.3647 25.65 21.5338 25.7966 21.6803L25.9135 21.7972H26.6966H27.4796V22.8572V23.9172H26.7584C25.9908 23.9172 25.8084 23.9514 25.7229 24.1112C25.6476 24.2519 25.6723 24.419 25.7851 24.5318L25.8905 24.6372H26.6851H27.4796V25.0026C27.4796 25.458 27.4281 25.6336 27.2277 25.8613C26.9409 26.1871 26.8454 26.2159 26.0196 26.2251C25.6236 26.2295 25.2432 26.2161 25.1742 26.1952ZM20.5996 22.8572V21.7172H22.1396H23.6796V22.8572V23.9972H22.1396H20.5996V22.8572ZM9.87961 17.3572V10.7572H15.3796H20.8796V15.8772V20.9972H20.7396H20.5996V20.6408C20.5996 19.8576 20.2375 19.266 19.5596 18.9416L19.2996 18.8172H18.3596H17.4196L17.1493 18.9453C16.7739 19.1231 16.4725 19.4195 16.2883 19.7921L16.1396 20.0929L16.1282 22.0251L16.1167 23.9572H12.9982H9.87961V17.3572ZM15.3276 22.1554C15.4325 22.0505 15.4462 22.0132 15.4258 21.8877C15.4128 21.8076 15.3651 21.7049 15.3198 21.6596C15.2396 21.5794 15.1982 21.5772 13.775 21.5772H12.3127L12.2162 21.6894C12.0826 21.8447 12.09 22.0137 12.2365 22.1603L12.3535 22.2772H13.7796H15.2058L15.3276 22.1554ZM15.3276 19.887C15.4633 19.7513 15.4529 19.4989 15.3065 19.373L15.1952 19.2772H13.7743H12.3535L12.2365 19.3941C12.0539 19.5768 12.1033 19.8632 12.3339 19.9583C12.381 19.9777 13.0536 19.99 13.8285 19.9854C15.2321 19.9772 15.2378 19.9769 15.3276 19.887ZM18.5031 17.585C18.6436 17.4217 18.6332 17.2326 18.4765 17.1008L18.3535 16.9972H15.3535H12.3535L12.2365 17.1141C12.1107 17.24 12.0913 17.359 12.171 17.5164C12.2748 17.7217 12.205 17.7176 15.4131 17.707L18.4066 17.6972L18.5031 17.585ZM13.5601 15.3372C13.6966 15.2141 13.7276 15.0937 13.6627 14.9385C13.6317 14.8643 13.57 14.7842 13.5256 14.7604C13.4791 14.7355 13.2136 14.7172 12.8992 14.7172H12.3535L12.2365 14.8341C12.1135 14.9572 12.0948 15.0468 12.1578 15.2124C12.2294 15.4008 12.3669 15.4383 12.9455 15.4272C13.4068 15.4184 13.4824 15.4074 13.5601 15.3372ZM18.5031 15.305C18.6084 15.1825 18.6297 14.9797 18.5483 14.8737C18.4327 14.7232 18.3618 14.7172 16.6804 14.7172H15.036L14.9378 14.8154C14.7553 14.9979 14.8313 15.3161 15.0796 15.4096C15.1126 15.4221 15.8747 15.4288 16.7731 15.4247L18.4066 15.4172L18.5031 15.305ZM19.3831 13.025C19.5132 12.8737 19.5125 12.6665 19.3814 12.5354L19.2832 12.4372H15.3784H11.4735L11.3565 12.5541C11.2327 12.678 11.2148 12.7667 11.2793 12.9364C11.365 13.1619 11.2428 13.1557 15.4331 13.1461L19.2866 13.1372L19.3831 13.025ZM11.3316 8.56273C10.774 8.37004 10.456 7.93812 10.4108 7.3121C10.3932 7.06663 10.4062 6.94993 10.4775 6.71512C10.5546 6.46142 10.5984 6.39108 10.8129 6.17709C11.2456 5.74536 10.882 5.77923 15.2396 5.76474C19.1902 5.7516 19.2785 5.7548 19.6113 5.92361C19.9677 6.10441 20.2566 6.53664 20.3166 6.97909C20.3941 7.54975 20.1454 8.14845 19.7191 8.41756C19.3622 8.64284 19.4728 8.63732 15.3424 8.63591C11.7888 8.6347 11.526 8.62989 11.3316 8.56273Z" fill="url(#paint0_linear_12_7)"/>
<defs>
<linearGradient id="paint0_linear_12_7" x1="7.7219" y1="18.5386" x2="23.8511" y2="12.1282" gradientUnits="userSpaceOnUse">
<stop stop-color="#0381F5"/>
<stop offset="1" stop-color="#FE0000"/>
</linearGradient>
</defs>
</svg>
