<svg width="25" height="25" viewBox="0 0 25 25" fill="none" xmlns="http://www.w3.org/2000/svg">
<path fill-rule="evenodd" clip-rule="evenodd" d="M11.7298 19.4657L11.6669 12.5737H9.27402V10.6091H13.9911L14.0501 17.501H16.2485V19.4657H11.7298ZM11.2387 7.28098C11.2246 6.86506 11.3701 6.45951 11.6453 6.14738C11.9145 5.84679 12.3015 5.69748 12.8045 5.69748C13.3074 5.69748 13.6964 5.84679 13.9715 6.14935C14.2465 6.44797 14.3821 6.82715 14.3821 7.28098C14.3821 7.72891 14.2446 8.10023 13.9695 8.39689C13.6945 8.69159 13.3074 8.8409 12.8045 8.8409C12.3015 8.8409 11.9145 8.69355 11.6453 8.39689C11.3708 8.09134 11.2251 7.69149 11.2387 7.28098ZM12.7121 22.3969C15.3174 22.3969 17.816 21.362 19.6582 19.5197C21.5004 17.6775 22.5353 15.179 22.5353 12.5737C22.5353 9.96844 21.5004 7.46987 19.6582 5.62767C17.816 3.78546 15.3174 2.75053 12.7121 2.75053C10.1069 2.75053 7.6083 3.78546 5.7661 5.62767C3.92389 7.46987 2.88895 9.96844 2.88895 12.5737C2.88895 15.179 3.92389 17.6775 5.7661 19.5197C7.6083 21.362 10.1069 22.3969 12.7121 22.3969ZM12.7121 24.3615C11.1641 24.3615 9.6313 24.0566 8.20113 23.4642C6.77097 22.8718 5.47149 22.0036 4.37689 20.909C3.28229 19.8144 2.414 18.5149 1.82161 17.0847C1.22922 15.6545 0.924316 14.1217 0.924316 12.5737C0.924316 11.0257 1.22922 9.49287 1.82161 8.06271C2.414 6.63254 3.28229 5.33306 4.37689 4.23846C5.47149 3.14386 6.77097 2.27558 8.20113 1.68318C9.6313 1.09079 11.1641 0.785889 12.7121 0.785889C15.8385 0.785889 18.8367 2.02782 21.0474 4.23846C23.258 6.44911 24.5 9.44738 24.5 12.5737C24.5 15.7 23.258 18.6983 21.0474 20.909C18.8367 23.1196 15.8385 24.3615 12.7121 24.3615Z" fill="white"/>
</svg>
