<svg width="20" height="21" viewBox="0 0 20 21" fill="none" xmlns="http://www.w3.org/2000/svg">
<path d="M0.973235 20.7259C0.663793 20.6318 0.34647 20.3313 0.263273 20.0536C0.227977 19.9358 0.216509 17.7646 0.216802 11.2552L0.217194 2.61316L0.310999 2.41171C0.3628 2.30046 0.482273 2.14395 0.577829 2.06216C0.834167 1.84274 1.04231 1.79631 1.76954 1.79631H2.39173L2.43698 2.10512C2.49857 2.52552 2.61578 2.81081 2.85971 3.13403C3.10798 3.46299 3.46648 3.71549 3.86235 3.84021L4.14127 3.92809H8.08606H12.0308L12.2974 3.83597C12.8256 3.65347 13.2534 3.28994 13.4898 2.82276C13.6185 2.56829 13.7228 2.17562 13.7237 1.94193L13.7243 1.78871L14.4515 1.80345C15.1061 1.81672 15.1952 1.8269 15.3435 1.90533C15.5525 2.0159 15.7351 2.19818 15.8477 2.40857L15.9358 2.57331L15.9463 9.0583L15.9569 15.5433H15.1195H14.2822L14.2819 10.2935C14.2817 6.7788 14.2679 4.99442 14.2402 4.89442C14.1598 4.60481 14.634 4.6254 8.04512 4.6254H2.12291L2.00643 4.74187L1.88996 4.85835V11.912V18.9656L1.98611 19.0774L2.08227 19.1892L5.45274 19.1999L8.82321 19.2105V19.601C8.82321 20.0285 8.88896 20.3196 9.04745 20.5938L9.14534 20.7631L5.10922 20.7597C2.88936 20.7578 1.02817 20.7426 0.973235 20.7259ZM10.253 20.7097C9.73583 20.5192 9.5006 20.1353 9.5006 19.4817V19.1693H10.3006H11.1006L11.2171 19.0528C11.347 18.9229 11.3617 18.8213 11.275 18.6536C11.1854 18.4805 11.0382 18.4521 10.2318 18.4521H9.5006V17.3961V16.3402H10.2953C11.0761 16.3402 11.0919 16.3385 11.2009 16.2448C11.3467 16.1194 11.3571 15.868 11.222 15.7328C11.1356 15.6462 11.1019 15.6424 10.3112 15.6306L9.49017 15.6183L9.50961 15.2321C9.52046 15.0168 9.55631 14.7818 9.59065 14.7009C9.67974 14.4912 9.91269 14.2501 10.1293 14.1434C10.3048 14.057 10.3656 14.0508 11.0347 14.0499C11.7004 14.049 11.7666 14.0557 11.9559 14.1413C12.2074 14.2552 12.3772 14.4262 12.497 14.6866L12.5887 14.8858V17.4161C12.5887 20.2378 12.6042 20.0733 12.3064 20.403C12.0257 20.7137 11.9304 20.7417 11.1144 20.7529C10.5942 20.7601 10.3575 20.7483 10.253 20.7097ZM12.9757 20.7333C13.2646 20.1604 13.2642 20.1617 13.2797 19.6973L13.2946 19.249H14.6306H15.9666L15.9469 19.6242C15.9301 19.9451 15.9101 20.0301 15.8086 20.2119C15.6795 20.4433 15.4157 20.6526 15.1658 20.722C14.9982 20.7686 12.9526 20.7791 12.9757 20.7333ZM17.843 20.7213C17.6048 20.6493 17.3425 20.434 17.2142 20.2053L17.0913 19.9861L17.0799 17.5009C17.067 14.6872 17.0638 14.7231 17.3556 14.4066C17.4439 14.3107 17.5999 14.1911 17.7022 14.1407C17.8755 14.0554 17.9376 14.0491 18.6055 14.0491C19.2752 14.0491 19.3366 14.0553 19.5322 14.1437C19.7655 14.2492 19.9534 14.44 20.0642 14.684C20.1193 14.8052 20.138 14.9432 20.1387 15.2322L20.1396 15.6183L19.3391 15.6306L18.5387 15.6429L18.4426 15.7547C18.3097 15.9094 18.317 16.0778 18.463 16.2237L18.5795 16.3402H19.3595H20.1396V17.3961V18.4521H19.4211C18.6565 18.4521 18.4748 18.4861 18.3896 18.6453C18.3145 18.7855 18.3392 18.9519 18.4516 19.0643L18.5566 19.1693H19.3481H20.1396V19.5333C20.1396 19.9869 20.0883 20.1619 19.8886 20.3886C19.6029 20.7132 19.5078 20.7419 18.6852 20.7511C18.2907 20.7555 17.9117 20.7421 17.843 20.7213ZM13.286 17.3961V16.2605H14.8201H16.3542V17.3961V18.5318H14.8201H13.286V17.3961ZM2.60719 11.9173V5.34263H8.08606H13.5649V10.443V15.5433H13.4255H13.286V15.1882C13.286 14.4081 12.9253 13.8187 12.25 13.4956L11.991 13.3717H11.0546H10.1182L9.84891 13.4992C9.47494 13.6764 9.17477 13.9716 8.99128 14.3428L8.84313 14.6424L8.83172 16.5672L8.82031 18.4919H5.71375H2.60719V11.9173ZM8.03427 16.697C8.13875 16.5925 8.15237 16.5554 8.13209 16.4304C8.11913 16.3505 8.0716 16.2483 8.02645 16.2031C7.94658 16.1233 7.90534 16.1211 6.48765 16.1211H5.03091L4.93475 16.2329C4.80175 16.3875 4.80904 16.5559 4.95506 16.7019L5.07153 16.8184H6.4922H7.91288L8.03427 16.697ZM8.03428 14.4373C8.16939 14.3022 8.15904 14.0507 8.0132 13.9253L7.9023 13.8299H6.48692H5.07153L4.95506 13.9464C4.77312 14.1283 4.82237 14.4137 5.05204 14.5084C5.099 14.5277 5.76901 14.5399 6.54095 14.5354C7.93908 14.5272 7.94481 14.5269 8.03428 14.4373ZM11.1975 12.1442C11.3375 11.9815 11.3271 11.7931 11.1711 11.6618L11.0485 11.5587H8.06001H5.07153L4.95506 11.6751C4.82971 11.8005 4.8104 11.919 4.88976 12.0759C4.99321 12.2803 4.9236 12.2762 8.1194 12.2657L11.1014 12.256L11.1975 12.1442ZM6.27357 9.90503C6.40948 9.78239 6.44036 9.66243 6.37578 9.50787C6.3449 9.43398 6.28344 9.35415 6.2392 9.33047C6.19285 9.30566 5.92834 9.28741 5.61514 9.28741H5.07153L4.95506 9.40389C4.8325 9.52645 4.8139 9.61576 4.87659 9.78066C4.94795 9.96835 5.0849 10.0057 5.66134 9.99471C6.12086 9.98595 6.1961 9.97493 6.27357 9.90503ZM11.1975 9.87292C11.3025 9.75091 11.3237 9.54891 11.2426 9.44335C11.1274 9.29333 11.0568 9.28741 9.38187 9.28741H7.74374L7.64594 9.38522C7.46416 9.56699 7.53982 9.88399 7.78721 9.97717C7.82008 9.98955 8.57923 9.99631 9.47419 9.9922L11.1014 9.98471L11.1975 9.87292ZM12.0741 7.60168C12.2038 7.45096 12.2031 7.24457 12.0725 7.11398L11.9747 7.01617H8.0848H4.19491L4.07844 7.13265C3.95508 7.256 3.93723 7.34439 4.00151 7.51345C4.08689 7.73803 3.96518 7.73189 8.13932 7.7223L11.978 7.71349L12.0741 7.60168ZM4.0536 3.15658C3.49809 2.96463 3.18132 2.53437 3.13638 1.91076C3.11875 1.66623 3.13174 1.54998 3.20278 1.31608C3.27955 1.06335 3.32323 0.993276 3.53687 0.780112C3.96793 0.350036 3.60572 0.383773 7.94659 0.36934C11.882 0.356252 11.9699 0.359446 12.3015 0.527599C12.6565 0.707709 12.9443 1.13827 13.0041 1.57903C13.0812 2.1475 12.8335 2.7439 12.4088 3.01197C12.0533 3.23639 12.1635 3.23089 8.04894 3.22948C4.50903 3.22827 4.24723 3.22348 4.0536 3.15658Z" fill="white"/>
</svg>
