<svg width="21" height="21" viewBox="0 0 21 21" fill="none" xmlns="http://www.w3.org/2000/svg">
<path d="M16.9587 19.5014C18.3877 19.5014 19.5462 18.3429 19.5462 16.9138C19.5462 15.4847 18.3877 14.3262 16.9587 14.3262C15.5296 14.3262 14.3711 15.4847 14.3711 16.9138C14.3711 18.3429 15.5296 19.5014 16.9587 19.5014Z" fill="white"/>
<path d="M6.60791 8.50421H7.90169V9.798H6.60791V8.50421ZM6.60791 11.7387H7.90169V13.0325H6.60791V11.7387ZM6.60791 14.9731H7.90169V16.2669H6.60791V14.9731ZM9.19548 8.50421H14.3706V9.798H9.19548V8.50421ZM9.19548 11.7387H14.3706V13.0325H9.19548V11.7387ZM9.19548 14.9731H11.783V16.2669H9.19548V14.9731Z" fill="white"/>
<path d="M4.66732 18.2076V4.62283H6.608V6.5635H14.3707V4.62283H16.3114V11.7386H17.6052V4.62283C17.6052 4.27969 17.4689 3.95062 17.2262 3.70798C16.9836 3.46535 16.6545 3.32904 16.3114 3.32904H14.3707V2.68215C14.3707 2.33902 14.2344 2.00994 13.9918 1.76731C13.7491 1.52468 13.42 1.38837 13.0769 1.38837H7.90178C7.55865 1.38837 7.22957 1.52468 6.98694 1.76731C6.74431 2.00994 6.608 2.33902 6.608 2.68215V3.32904H4.66732C4.32419 3.32904 3.99511 3.46535 3.75248 3.70798C3.50984 3.95062 3.37354 4.27969 3.37354 4.62283V18.2076C3.37354 18.5507 3.50984 18.8798 3.75248 19.1224C3.99511 19.365 4.32419 19.5013 4.66732 19.5013H11.7831V18.2076H4.66732ZM7.90178 2.68215H13.0769V5.26972H7.90178V2.68215Z" fill="white"/>
</svg>
