<svg width="18" height="18" viewBox="0 0 18 18" fill="none" xmlns="http://www.w3.org/2000/svg">
<path d="M16.3147 0.961304H2.33365C1.96285 0.961304 1.60724 1.1086 1.34504 1.3708C1.08285 1.63299 0.935547 1.98861 0.935547 2.3594V16.3404C0.935547 16.7112 1.08285 17.0668 1.34504 17.329C1.60724 17.5912 1.96285 17.7385 2.33365 17.7385H16.3147C16.6855 17.7385 17.0411 17.5912 17.3033 17.329C17.5655 17.0668 17.7128 16.7112 17.7128 16.3404V2.3594C17.7128 1.98861 17.5655 1.63299 17.3033 1.3708C17.0411 1.1086 16.6855 0.961304 16.3147 0.961304ZM14.2175 10.049H10.0232V14.2433C10.0232 14.4287 9.94955 14.6065 9.81846 14.7376C9.68736 14.8687 9.50955 14.9423 9.32415 14.9423C9.13875 14.9423 8.96095 14.8687 8.82985 14.7376C8.69875 14.6065 8.6251 14.4287 8.6251 14.2433V10.049H4.4308C4.2454 10.049 4.06759 9.97531 3.9365 9.84421C3.8054 9.71312 3.73175 9.53531 3.73175 9.34991C3.73175 9.16451 3.8054 8.9867 3.9365 8.85561C4.06759 8.72451 4.2454 8.65086 4.4308 8.65086H8.6251V4.45656C8.6251 4.27116 8.69875 4.09335 8.82985 3.96225C8.96095 3.83116 9.13875 3.75751 9.32415 3.75751C9.50955 3.75751 9.68736 3.83116 9.81846 3.96225C9.94955 4.09335 10.0232 4.27116 10.0232 4.45656V8.65086H14.2175C14.4029 8.65086 14.5807 8.72451 14.7118 8.85561C14.8429 8.9867 14.9166 9.16451 14.9166 9.34991C14.9166 9.53531 14.8429 9.71312 14.7118 9.84421C14.5807 9.97531 14.4029 10.049 14.2175 10.049Z" fill="white"/>
</svg>
