<svg width="19" height="19" viewBox="0 0 19 19" fill="none" xmlns="http://www.w3.org/2000/svg">
<path d="M15.313 17.817C16.5773 17.817 17.6022 16.7921 17.6022 15.5279C17.6022 14.2636 16.5773 13.2388 15.313 13.2388C14.0488 13.2388 13.0239 14.2636 13.0239 15.5279C13.0239 16.7921 14.0488 17.817 15.313 17.817Z" fill="#E4E4E4"/>
<path d="M6.15625 8.08832H7.30081V9.23288H6.15625V8.08832ZM6.15625 10.9497H7.30081V12.0943H6.15625V10.9497ZM6.15625 13.8111H7.30081V14.9557H6.15625V13.8111ZM8.44537 8.08832H13.0236V9.23288H8.44537V8.08832ZM8.44537 10.9497H13.0236V12.0943H8.44537V10.9497ZM8.44537 13.8111H10.7345V14.9557H8.44537V13.8111Z" fill="#E4E4E4"/>
<path d="M4.43997 16.6725V4.65467H6.1568V6.3715H13.0241V4.65467H14.741V10.9497H15.8855V4.65467C15.8855 4.35111 15.765 4.05999 15.5503 3.84534C15.3357 3.6307 15.0445 3.51011 14.741 3.51011H13.0241V2.93783C13.0241 2.63428 12.9036 2.34315 12.6889 2.12851C12.4743 1.91386 12.1831 1.79327 11.8796 1.79327H7.30136C6.99781 1.79327 6.70668 1.91386 6.49204 2.12851C6.27739 2.34315 6.1568 2.63428 6.1568 2.93783V3.51011H4.43997C4.13641 3.51011 3.84529 3.6307 3.63064 3.84534C3.416 4.05999 3.29541 4.35111 3.29541 4.65467V16.6725C3.29541 16.9761 3.416 17.2672 3.63064 17.4818C3.84529 17.6965 4.13641 17.8171 4.43997 17.8171H10.735V16.6725H4.43997ZM7.30136 2.93783H11.8796V5.22695H7.30136V2.93783Z" fill="#E4E4E4"/>
</svg>
