<svg width="17" height="17" viewBox="0 0 17 17" fill="none" xmlns="http://www.w3.org/2000/svg">
<path d="M0.912978 16.88C0.660145 16.8031 0.400873 16.5575 0.332896 16.3306C0.304057 16.2344 0.294687 14.4604 0.294926 9.14179L0.295246 2.08072L0.371891 1.91613C0.414216 1.82523 0.511833 1.69735 0.589907 1.63052C0.799351 1.45125 0.969417 1.41331 1.56361 1.41331H2.07198L2.10895 1.66562C2.15927 2.00912 2.25504 2.24222 2.45435 2.5063C2.6572 2.77509 2.95012 2.9814 3.27356 3.0833L3.50146 3.1551H6.72459H9.94773L10.1655 3.07984C10.5971 2.93072 10.9467 2.63369 11.1398 2.25198C11.245 2.04406 11.3302 1.72323 11.3309 1.53229L11.3314 1.4071L11.9256 1.41914C12.4604 1.42998 12.5332 1.4383 12.6543 1.50238C12.8251 1.59273 12.9744 1.74166 13.0663 1.91356L13.1383 2.04817L13.1469 7.3468L13.1555 12.6454H12.4714H11.7872L11.7869 8.35606C11.7868 5.48431 11.7756 4.02636 11.7529 3.94466C11.6872 3.70802 12.0747 3.72485 6.69115 3.72485H1.85233L1.75716 3.82001L1.662 3.91518V9.67844V15.4417L1.74056 15.533L1.81913 15.6244L4.57301 15.6331L7.3269 15.6417V15.9609C7.3269 16.3102 7.38062 16.548 7.51011 16.772L7.5901 16.9104L4.29234 16.9076C2.47857 16.906 0.95786 16.8936 0.912978 16.88ZM8.49511 16.8667C8.07256 16.7111 7.88036 16.3974 7.88036 15.8634V15.6081H8.53401H9.18765L9.28281 15.5129C9.38896 15.4068 9.401 15.3238 9.33013 15.1868C9.25699 15.0453 9.13669 15.0221 8.47781 15.0221H7.88036V14.1593V13.2966H8.52969C9.16768 13.2966 9.18059 13.2952 9.26962 13.2186C9.38876 13.1162 9.39723 12.9107 9.28688 12.8002C9.21624 12.7295 9.18876 12.7265 8.54269 12.7168L7.87184 12.7067L7.88773 12.3912C7.89659 12.2153 7.92588 12.0233 7.95394 11.9572C8.02673 11.7858 8.21706 11.5888 8.39409 11.5017C8.53746 11.4311 8.58712 11.4259 9.1338 11.4253C9.67771 11.4245 9.7318 11.43 9.88646 11.5C10.092 11.593 10.2307 11.7327 10.3286 11.9455L10.4035 12.1082V14.1756C10.4035 16.4812 10.4162 16.3468 10.1729 16.6161C9.94354 16.87 9.86564 16.8928 9.19892 16.902C8.77388 16.9079 8.58054 16.8982 8.49511 16.8667ZM10.7197 16.886C10.9558 16.4179 10.9554 16.4189 10.9681 16.0395L10.9803 15.6732H12.0719H13.1635L13.1474 15.9798C13.1337 16.242 13.1174 16.3115 13.0344 16.46C12.9289 16.6491 12.7134 16.8201 12.5092 16.8768C12.3722 16.9148 10.7008 16.9234 10.7197 16.886ZM14.6966 16.8762C14.502 16.8174 14.2877 16.6415 14.1829 16.4546L14.0825 16.2755L14.0731 14.245C14.0626 11.946 14.06 11.9753 14.2984 11.7167C14.3705 11.6384 14.498 11.5406 14.5816 11.4994C14.7231 11.4297 14.7739 11.4246 15.3196 11.4246C15.8668 11.4246 15.917 11.4297 16.0768 11.5019C16.2674 11.5881 16.421 11.744 16.5115 11.9433C16.5565 12.0424 16.5718 12.1551 16.5723 12.3912L16.5731 12.7068L15.9191 12.7168L15.265 12.7268L15.1865 12.8182C15.0779 12.9445 15.0839 13.0821 15.2032 13.2014L15.2983 13.2966H15.9357H16.5731V14.1593V15.0221H15.986C15.3613 15.0221 15.2128 15.0499 15.1432 15.18C15.0819 15.2945 15.102 15.4305 15.1938 15.5223L15.2797 15.6081H15.9264H16.5731V15.9055C16.5731 16.2762 16.5311 16.4191 16.368 16.6044C16.1346 16.8696 16.0569 16.893 15.3847 16.9005C15.0624 16.9041 14.7528 16.8932 14.6966 16.8762ZM10.9733 14.1593V13.2315H12.2267H13.4801V14.1593V15.0872H12.2267H10.9733V14.1593ZM2.24802 9.68276V4.31087H6.72459H11.2012V8.47815V12.6454H11.0872H10.9733V12.3553C10.9733 11.7179 10.6785 11.2364 10.1268 10.9723L9.91517 10.8711H9.15008H8.38499L8.16496 10.9753C7.8594 11.1201 7.61414 11.3613 7.46422 11.6645L7.34317 11.9094L7.33385 13.482L7.32453 15.0546H4.78627H2.24802V9.68276ZM6.68228 13.5881C6.76765 13.5027 6.77878 13.4724 6.76221 13.3703C6.75162 13.305 6.71278 13.2215 6.6759 13.1846C6.61063 13.1193 6.57694 13.1175 5.4186 13.1175H4.22835L4.14978 13.2089C4.04111 13.3352 4.04707 13.4728 4.16637 13.5921L4.26154 13.6873H5.42232H6.5831L6.68228 13.5881ZM6.68229 11.7418C6.79269 11.6314 6.78423 11.4259 6.66506 11.3234L6.57446 11.2455H5.418H4.26154L4.16637 11.3407C4.01772 11.4893 4.05796 11.7225 4.24561 11.7998C4.28399 11.8157 4.83143 11.8256 5.46215 11.8219C6.60451 11.8153 6.60919 11.8149 6.68229 11.7418ZM9.26686 9.86814C9.38119 9.73521 9.37275 9.58131 9.24526 9.47403L9.14509 9.38974H6.70331H4.26154L4.16637 9.48491C4.06396 9.58733 4.04818 9.68418 4.11302 9.81234C4.19755 9.97939 4.14067 9.97605 6.75184 9.96748L9.18829 9.95948L9.26686 9.86814ZM5.24368 8.03863C5.35473 7.93843 5.37996 7.84041 5.32719 7.71413C5.30196 7.65375 5.25175 7.58852 5.21559 7.56918C5.17772 7.54891 4.96161 7.534 4.7057 7.534H4.26154L4.16637 7.62917C4.06623 7.72931 4.05104 7.80228 4.10226 7.93702C4.16057 8.09037 4.27246 8.12089 4.74345 8.11191C5.11891 8.10475 5.18038 8.09575 5.24368 8.03863ZM9.26687 8.0124C9.3526 7.9127 9.36991 7.74766 9.30369 7.66141C9.20959 7.53884 9.15186 7.534 7.78335 7.534H6.4449L6.36499 7.61391C6.21647 7.76243 6.27828 8.02144 6.48042 8.09757C6.50728 8.10769 7.12754 8.11322 7.85879 8.10985L9.18833 8.10374L9.26687 8.0124ZM9.98311 6.15666C10.089 6.0335 10.0885 5.86487 9.98176 5.75817L9.90184 5.67826H6.72357H3.54529L3.45012 5.77343C3.34933 5.87421 3.33474 5.94643 3.38726 6.08457C3.45703 6.26806 3.35759 6.26304 6.76812 6.25521L9.90454 6.24801L9.98311 6.15666ZM3.42983 2.52473C2.97594 2.3679 2.71712 2.01635 2.6804 1.50682C2.666 1.30702 2.67661 1.21204 2.73466 1.02093C2.79738 0.814432 2.83307 0.757178 3.00763 0.58301C3.35983 0.231611 3.06388 0.259176 6.61064 0.247383C9.82608 0.23669 9.89798 0.2393 10.1688 0.376691C10.459 0.523852 10.6941 0.87565 10.7429 1.23578C10.806 1.70025 10.6035 2.18754 10.2566 2.40657C9.9661 2.58994 10.0561 2.58545 6.69427 2.58429C3.80194 2.58331 3.58804 2.57939 3.42983 2.52473Z" fill="white"/>
</svg>
