<svg width="19" height="20" viewBox="0 0 19 20" fill="none" xmlns="http://www.w3.org/2000/svg">
<path d="M0.857261 19.2697C0.577684 19.1846 0.290986 18.9131 0.215819 18.6622C0.183929 18.5558 0.173568 16.5941 0.173833 10.713L0.174187 2.905L0.258938 2.72299C0.30574 2.62248 0.413683 2.48108 0.500016 2.40718C0.731615 2.20894 0.91967 2.16698 1.57671 2.16698H2.13886L2.17973 2.44599C2.23538 2.82582 2.34128 3.08357 2.56167 3.3756C2.78598 3.67281 3.10988 3.90094 3.46754 4.01362L3.71955 4.09302H7.28361H10.8477L11.0885 4.0098C11.5658 3.8449 11.9523 3.51646 12.1658 3.09437C12.2821 2.86446 12.3764 2.50969 12.3772 2.29855L12.3777 2.16012L13.0347 2.17344C13.6261 2.18543 13.7066 2.19462 13.8406 2.26548C14.0295 2.36539 14.1945 2.53007 14.2961 2.72016L14.3758 2.869L14.3853 8.7281L14.3948 14.5872H13.6383H12.8817L12.8814 9.84413C12.8813 6.6686 12.8689 5.05644 12.8438 4.96609C12.7712 4.70443 13.1996 4.72303 7.24663 4.72303H1.89597L1.79074 4.82826L1.68551 4.9335V11.3064V17.6793L1.77239 17.7803L1.85926 17.8813L4.90444 17.8909L7.94962 17.9005V18.2533C7.94962 18.6396 8.00902 18.9026 8.15222 19.1503L8.24066 19.3033L4.59408 19.3002C2.58846 19.2985 0.90689 19.2848 0.857261 19.2697ZM9.24141 19.255C8.77416 19.0829 8.56163 18.736 8.56163 18.1456V17.8633H9.28442H10.0072L10.1124 17.758C10.2298 17.6407 10.2431 17.5489 10.1648 17.3974C10.0839 17.241 9.95085 17.2153 9.22227 17.2153H8.56163V16.2612V15.3072H9.27964C9.98512 15.3072 9.99939 15.3057 10.0978 15.221C10.2296 15.1077 10.239 14.8805 10.1169 14.7584C10.0388 14.6802 10.0084 14.6768 9.29402 14.6661L8.55221 14.655L8.56978 14.3061C8.57958 14.1116 8.61197 13.8992 8.64299 13.8262C8.72348 13.6366 8.93395 13.4188 9.1297 13.3225C9.28824 13.2444 9.34315 13.2387 9.94766 13.238C10.5491 13.2372 10.6089 13.2432 10.7799 13.3206C11.0072 13.4234 11.1606 13.578 11.2688 13.8132L11.3517 13.9932V16.2792C11.3517 18.8287 11.3657 18.6801 11.0966 18.9779C10.843 19.2586 10.7569 19.2839 10.0197 19.2941C9.54966 19.3006 9.33587 19.2898 9.24141 19.255ZM11.7013 19.2763C11.9623 18.7587 11.962 18.7599 11.976 18.3403L11.9895 17.9353H13.1965H14.4035L14.3858 18.2743C14.3707 18.5642 14.3526 18.641 14.2609 18.8053C14.1442 19.0143 13.9059 19.2034 13.6801 19.2661C13.5286 19.3082 11.6804 19.3177 11.7013 19.2763ZM16.0989 19.2655C15.8837 19.2004 15.6467 19.0059 15.5308 18.7993L15.4198 18.6013L15.4095 16.3559C15.3978 13.8138 15.3949 13.8462 15.6585 13.5602C15.7383 13.4736 15.8793 13.3655 15.9717 13.32C16.1282 13.2429 16.1843 13.2372 16.7878 13.2372C17.3929 13.2372 17.4483 13.2429 17.6251 13.3227C17.8358 13.418 18.0056 13.5904 18.1057 13.8108C18.1555 13.9204 18.1724 14.045 18.173 14.3061L18.1738 14.655L17.4506 14.6661L16.7274 14.6772L16.6406 14.7782C16.5205 14.918 16.5271 15.0701 16.659 15.202L16.7643 15.3072H17.469H18.1738V16.2613V17.2153H17.5247C16.8339 17.2153 16.6697 17.246 16.5927 17.3899C16.5249 17.5165 16.5472 17.6668 16.6487 17.7684L16.7436 17.8633H17.4587H18.1738V18.1921C18.1738 18.602 18.1275 18.7601 17.9471 18.9649C17.689 19.2582 17.603 19.2841 16.8598 19.2924C16.5034 19.2964 16.161 19.2843 16.0989 19.2655ZM11.9817 16.2612V15.2352H13.3677H14.7537V16.2612V17.2873H13.3677H11.9817V16.2612ZM2.33352 11.3111V5.37104H7.28361H12.2337V9.97913V14.5872H12.1077H11.9817V14.2664C11.9817 13.5616 11.6558 13.0291 11.0457 12.7371L10.8117 12.6252H9.96566H9.11964L8.87633 12.7404C8.53845 12.9005 8.26725 13.1672 8.10147 13.5026L7.96762 13.7733L7.95731 15.5123L7.947 17.2513H5.14026H2.33352V11.3111ZM7.23682 15.6296C7.33122 15.5352 7.34353 15.5016 7.3252 15.3887C7.31349 15.3166 7.27055 15.2242 7.22976 15.1834C7.1576 15.1112 7.12034 15.1092 5.83947 15.1092H4.52333L4.43644 15.2102C4.31628 15.3499 4.32287 15.5021 4.45479 15.634L4.56002 15.7392H5.84358H7.12715L7.23682 15.6296ZM7.23683 13.588C7.3589 13.4659 7.34955 13.2387 7.21778 13.1254L7.11759 13.0392H5.83881H4.56002L4.45479 13.1444C4.29042 13.3088 4.33491 13.5666 4.54241 13.6522C4.58484 13.6697 5.19019 13.6807 5.88763 13.6766C7.15082 13.6692 7.156 13.6689 7.23683 13.588ZM10.0948 11.5161C10.2212 11.3692 10.2119 11.199 10.0709 11.0803L9.96013 10.9871H7.26008H4.56002L4.45479 11.0924C4.34154 11.2056 4.32409 11.3127 4.3958 11.4544C4.48926 11.6392 4.42637 11.6355 7.31374 11.626L10.0079 11.6171L10.0948 11.5161ZM5.64605 9.49312C5.76885 9.38232 5.79674 9.27393 5.73839 9.13429C5.7105 9.06753 5.65497 8.9954 5.61499 8.974C5.57312 8.95159 5.33414 8.93511 5.05117 8.93511H4.56002L4.45479 9.04034C4.34406 9.15107 4.32725 9.23176 4.3839 9.38075C4.44837 9.55033 4.5721 9.58408 5.09291 9.57415C5.50808 9.56623 5.57606 9.55627 5.64605 9.49312ZM10.0948 9.46411C10.1896 9.35387 10.2087 9.17136 10.1355 9.07599C10.0315 8.94046 9.96763 8.93511 8.45436 8.93511H6.97433L6.88597 9.02347C6.72174 9.1877 6.79009 9.47411 7.01361 9.55829C7.04331 9.56948 7.72918 9.57559 8.53778 9.57187L10.0079 9.56511L10.0948 9.46411ZM10.8868 7.41207C11.0039 7.27589 11.0033 7.08942 10.8853 6.97143L10.7969 6.88307H7.28248H3.76801L3.66278 6.9883C3.55133 7.09975 3.53519 7.17961 3.59327 7.33236C3.67041 7.53526 3.56045 7.52971 7.33174 7.52105L10.7999 7.51309L10.8868 7.41207ZM3.64034 3.39597C3.13844 3.22255 2.85224 2.83382 2.81163 2.27039C2.79571 2.04946 2.80744 1.94443 2.87163 1.7331C2.94098 1.50476 2.98045 1.44145 3.17348 1.24886C3.56293 0.860294 3.23568 0.890775 7.15761 0.877735C10.7132 0.86591 10.7927 0.868796 11.0922 1.02072C11.413 1.18345 11.673 1.57246 11.727 1.97068C11.7967 2.48428 11.5729 3.02312 11.1892 3.26532C10.868 3.46808 10.9675 3.46311 7.25008 3.46183C4.05181 3.46075 3.81528 3.45642 3.64034 3.39597Z" fill="#E4E4E4"/>
</svg>
