<svg width="20" height="19" viewBox="0 0 20 19" fill="none" xmlns="http://www.w3.org/2000/svg">
<path d="M15.6126 2.93781H4.16702C3.86346 2.93781 3.57234 3.05839 3.35769 3.27304C3.14305 3.48768 3.02246 3.77881 3.02246 4.08236V15.5279C3.02246 15.8315 3.14305 16.1226 3.35769 16.3373C3.57234 16.5519 3.86346 16.6725 4.16702 16.6725H15.6126C15.9162 16.6725 16.2073 16.5519 16.4219 16.3373C16.6366 16.1226 16.7572 15.8315 16.7572 15.5279V4.08236C16.7572 3.77881 16.6366 3.48768 16.4219 3.27304C16.2073 3.05839 15.9162 2.93781 15.6126 2.93781ZM13.8958 10.3774H10.4621V13.8111C10.4621 13.9629 10.4018 14.1084 10.2945 14.2158C10.1871 14.3231 10.0416 14.3834 9.88981 14.3834C9.73803 14.3834 9.59247 14.3231 9.48514 14.2158C9.37782 14.1084 9.31753 13.9629 9.31753 13.8111V10.3774H5.88385C5.73208 10.3774 5.58652 10.3171 5.47919 10.2098C5.37187 10.1025 5.31158 9.95693 5.31158 9.80515C5.31158 9.65337 5.37187 9.50781 5.47919 9.40049C5.58652 9.29317 5.73208 9.23287 5.88385 9.23287H9.31753V5.7992C9.31753 5.64742 9.37782 5.50186 9.48514 5.39454C9.59247 5.28721 9.73803 5.22692 9.88981 5.22692C10.0416 5.22692 10.1871 5.28721 10.2945 5.39454C10.4018 5.50186 10.4621 5.64742 10.4621 5.7992V9.23287H13.8958C14.0475 9.23287 14.1931 9.29317 14.3004 9.40049C14.4077 9.50781 14.468 9.65337 14.468 9.80515C14.468 9.95693 14.4077 10.1025 14.3004 10.2098C14.1931 10.3171 14.0475 10.3774 13.8958 10.3774Z" fill="#E4E4E4"/>
</svg>
