<svg width="8" height="9" viewBox="0 0 8 9" fill="none" xmlns="http://www.w3.org/2000/svg">
<path fill-rule="evenodd" clip-rule="evenodd" d="M1.50086 3.85743C1.50086 3.28583 1.72793 2.73765 2.1321 2.33347C2.53628 1.9293 3.08446 1.70223 3.65606 1.70223C4.22765 1.70223 4.77583 1.9293 5.18001 2.33347C5.58419 2.73765 5.81125 3.28583 5.81125 3.85743C5.81125 4.42902 5.58419 4.9772 5.18001 5.38138C4.77583 5.78556 4.22765 6.01262 3.65606 6.01262C3.08446 6.01262 2.53628 5.78556 2.1321 5.38138C1.72793 4.9772 1.50086 4.42902 1.50086 3.85743ZM3.65606 0.624634C3.14727 0.624569 2.64565 0.744593 2.192 0.974945C1.73835 1.2053 1.34547 1.53947 1.04532 1.95029C0.745171 2.36111 0.546225 2.83697 0.464662 3.33918C0.383099 3.84138 0.421223 4.35575 0.575933 4.84044C0.730643 5.32514 0.997571 5.76647 1.35501 6.12855C1.71244 6.49063 2.15029 6.76323 2.63295 6.92419C3.1156 7.08514 3.62943 7.1299 4.13265 7.05483C4.63587 6.97976 5.11426 6.78697 5.52892 6.49215L7.04671 8.00995C7.14833 8.10809 7.28443 8.1624 7.42571 8.16117C7.56698 8.15995 7.70212 8.10328 7.80201 8.00338C7.90191 7.90348 7.95857 7.76835 7.9598 7.62708C7.96103 7.4858 7.90672 7.3497 7.80858 7.24808L6.29132 5.73083C6.63522 5.24718 6.83936 4.6782 6.88137 4.08624C6.92337 3.49428 6.80162 2.90217 6.52945 2.37481C6.25729 1.84745 5.84521 1.40518 5.33837 1.09647C4.83154 0.787761 4.24951 0.624518 3.65606 0.624634Z" fill="white"/>
</svg>
