<svg width="30" height="30" viewBox="0 0 30 30" fill="none" xmlns="http://www.w3.org/2000/svg">
<path d="M15 0C23.2845 0 30 6.7155 30 15C30 23.2845 23.2845 30 15 30C6.7155 30 0 23.2845 0 15C0 6.7155 6.7155 0 15 0ZM15 6C14.6022 6 14.2206 6.15804 13.9393 6.43934C13.658 6.72064 13.5 7.10218 13.5 7.5V15C13.5001 15.3978 13.6582 15.7793 13.9395 16.0605L18.4395 20.5605C18.7224 20.8337 19.1013 20.9849 19.4946 20.9815C19.8879 20.9781 20.2641 20.8203 20.5422 20.5422C20.8203 20.2641 20.9781 19.8879 20.9815 19.4946C20.9849 19.1013 20.8337 18.7224 20.5605 18.4395L16.5 14.379V7.5C16.5 7.10218 16.342 6.72064 16.0607 6.43934C15.7794 6.15804 15.3978 6 15 6Z" fill="white"/>
</svg>
