<svg width="40" height="40" viewBox="0 0 40 40" fill="none" xmlns="http://www.w3.org/2000/svg">
<rect width="40" height="40" fill="#2A2A2A"/>
<path d="M30 17.5V31.875C30 32.2854 29.9192 32.6917 29.7621 33.0709C29.6051 33.45 29.3749 33.7945 29.0847 34.0847C28.7945 34.3749 28.45 34.6051 28.0709 34.7621C27.6917 34.9192 27.2854 35 26.875 35H8.125C7.2962 35 6.50134 34.6708 5.91529 34.0847C5.32924 33.4987 5 32.7038 5 31.875V13.125C5 12.2962 5.32924 11.5013 5.91529 10.9153C6.50134 10.3292 7.2962 10 8.125 10H21.2094" stroke="url(#paint0_linear_33_171)" stroke-width="2.8125" stroke-linecap="round" stroke-linejoin="round"/>
<path d="M35.9329 4.16018C35.8187 4.03474 35.6803 3.93375 35.5261 3.86332C35.3718 3.79288 35.2048 3.75445 35.0352 3.75036C34.8657 3.74628 34.697 3.77661 34.5395 3.83952C34.382 3.90244 34.2389 3.99664 34.1188 4.11643L33.1524 5.07815C33.0353 5.19535 32.9695 5.35426 32.9695 5.51994C32.9695 5.68563 33.0353 5.84454 33.1524 5.96174L34.0384 6.84612C34.0965 6.90446 34.1655 6.95076 34.2415 6.98235C34.3175 7.01394 34.399 7.0302 34.4813 7.0302C34.5637 7.0302 34.6452 7.01394 34.7212 6.98235C34.7972 6.95076 34.8662 6.90446 34.9243 6.84612L35.8665 5.90862C36.3431 5.43284 36.3876 4.65784 35.9329 4.16018ZM31.1985 7.03127L17.0954 21.1094C17.0099 21.1946 16.9477 21.3003 16.9149 21.4164L16.2626 23.3594C16.247 23.4121 16.2459 23.4681 16.2594 23.5214C16.2729 23.5747 16.3006 23.6233 16.3395 23.6622C16.3784 23.7011 16.427 23.7288 16.4803 23.7423C16.5336 23.7558 16.5896 23.7547 16.6423 23.7391L18.5837 23.0867C18.6998 23.0539 18.8056 22.9918 18.8907 22.9063L32.9688 8.80159C33.0991 8.66995 33.1721 8.49224 33.1721 8.30705C33.1721 8.12187 33.0991 7.94416 32.9688 7.81252L32.1915 7.03127C32.0597 6.89984 31.8812 6.82603 31.695 6.82603C31.5089 6.82603 31.3303 6.89984 31.1985 7.03127Z" fill="url(#paint1_linear_33_171)"/>
<defs>
<linearGradient id="paint0_linear_33_171" x1="17.5" y1="10" x2="17.5" y2="35" gradientUnits="userSpaceOnUse">
<stop stop-color="#F90305"/>
<stop offset="1" stop-color="#0A7EEF"/>
</linearGradient>
<linearGradient id="paint1_linear_33_171" x1="26.2501" y1="3.75" x2="26.2501" y2="23.7517" gradientUnits="userSpaceOnUse">
<stop stop-color="#F90305"/>
<stop offset="1" stop-color="#0A7EEF"/>
</linearGradient>
</defs>
</svg>
